<?xml version="1.0" encoding="UTF-8" standalone="no"?>
<!-- Created with Inkscape (http://www.inkscape.org/) by Bryce Castle-->

<svg
   version="1.1"
   id="svg1"
   width="1024"
   height="1024"
   viewBox="0 0 1024 1024"
   sodipodi:docname="FRUIT.svg"
   xml:space="preserve"
   inkscape:version="1.3.2 (091e20e, 2023-11-25)"
   xmlns:inkscape="http://www.inkscape.org/namespaces/inkscape"
   xmlns:sodipodi="http://sodipodi.sourceforge.net/DTD/sodipodi-0.dtd"
   xmlns="http://www.w3.org/2000/svg"
   xmlns:svg="http://www.w3.org/2000/svg"><defs
     id="defs1"><inkscape:path-effect
       effect="fillet_chamfer"
       id="path-effect13"
       is_visible="true"
       lpeversion="1"
       nodesatellites_param="F,0,0,1,0,10,0,1 @ F,0,0,1,0,10,0,1"
       radius="10"
       unit="px"
       method="auto"
       mode="F"
       chamfer_steps="1"
       flexible="false"
       use_knot_distance="true"
       apply_no_radius="true"
       apply_with_radius="true"
       only_selected="false"
       hide_knots="false" /><inkscape:path-effect
       effect="fillet_chamfer"
       id="path-effect12"
       is_visible="true"
       lpeversion="1"
       nodesatellites_param="F,0,0,1,0,10,0,1 @ F,0,0,1,0,10,0,1"
       radius="10"
       unit="px"
       method="auto"
       mode="F"
       chamfer_steps="1"
       flexible="false"
       use_knot_distance="true"
       apply_no_radius="true"
       apply_with_radius="true"
       only_selected="false"
       hide_knots="false" /><inkscape:path-effect
       effect="fillet_chamfer"
       id="path-effect11"
       is_visible="true"
       lpeversion="1"
       nodesatellites_param="F,0,0,1,0,10,0,1 @ F,0,0,1,0,10,0,1"
       radius="10"
       unit="px"
       method="auto"
       mode="F"
       chamfer_steps="1"
       flexible="false"
       use_knot_distance="true"
       apply_no_radius="true"
       apply_with_radius="true"
       only_selected="false"
       hide_knots="false" /><inkscape:path-effect
       effect="fillet_chamfer"
       id="path-effect10"
       is_visible="true"
       lpeversion="1"
       nodesatellites_param="F,0,0,1,0,5,0,1 @ F,0,0,1,0,5,0,1 @ F,0,0,1,0,5,0,1 @ F,0,0,1,0,5,0,1 @ F,0,0,1,0,5,0,1 @ F,0,0,1,0,5,0,1 @ F,0,0,1,0,5,0,1"
       radius="5"
       unit="px"
       method="auto"
       mode="F"
       chamfer_steps="1"
       flexible="false"
       use_knot_distance="true"
       apply_no_radius="true"
       apply_with_radius="true"
       only_selected="false"
       hide_knots="false" /><inkscape:path-effect
       effect="fillet_chamfer"
       id="path-effect9"
       is_visible="true"
       lpeversion="1"
       nodesatellites_param="F,0,0,1,0,0,0,1 @ F,0,0,1,0,0,0,1 @ F,0,0,1,0,0,0,1 @ F,0,0,1,0,0,0,1 @ F,0,0,1,0,0,0,1 @ F,0,0,1,0,0,0,1 @ F,0,0,1,0,0,0,1 @ F,0,0,1,0,0,0,1 @ F,0,0,1,0,0,0,1 @ F,0,0,1,0,0,0,1 @ F,0,0,1,0,0,0,1 @ F,0,0,1,0,0,0,1 @ F,0,0,1,0,0,0,1 @ F,0,0,1,0,0,0,1"
       radius="25"
       unit="px"
       method="auto"
       mode="F"
       chamfer_steps="1"
       flexible="false"
       use_knot_distance="true"
       apply_no_radius="true"
       apply_with_radius="true"
       only_selected="false"
       hide_knots="false" /><inkscape:path-effect
       effect="fillet_chamfer"
       id="path-effect8"
       is_visible="true"
       lpeversion="1"
       nodesatellites_param="F,0,0,1,0,25,0,1 @ F,0,0,1,0,25,0,1 @ F,0,0,1,0,25,0,1"
       radius="25"
       unit="px"
       method="auto"
       mode="F"
       chamfer_steps="1"
       flexible="false"
       use_knot_distance="true"
       apply_no_radius="true"
       apply_with_radius="true"
       only_selected="false"
       hide_knots="false" /><clipPath
       clipPathUnits="userSpaceOnUse"
       id="clipPath7"><ellipse
         style="fill:#ebc887;fill-opacity:1;stroke:none;stroke-width:8.34438;stroke-linecap:round;stroke-linejoin:round"
         id="ellipse8"
         cx="367.01852"
         cy="1410.7804"
         rx="152.46063"
         ry="197.95682" /></clipPath><inkscape:path-effect
       effect="fillet_chamfer"
       id="path-effect11-0"
       is_visible="true"
       lpeversion="1"
       nodesatellites_param="F,0,0,1,0,10,0,1 @ F,0,0,1,0,10,0,1"
       radius="10"
       unit="px"
       method="auto"
       mode="F"
       chamfer_steps="1"
       flexible="false"
       use_knot_distance="true"
       apply_no_radius="true"
       apply_with_radius="true"
       only_selected="false"
       hide_knots="false" /><inkscape:path-effect
       effect="fillet_chamfer"
       id="path-effect12-3"
       is_visible="true"
       lpeversion="1"
       nodesatellites_param="F,0,0,1,0,10,0,1 @ F,0,0,1,0,10,0,1"
       radius="10"
       unit="px"
       method="auto"
       mode="F"
       chamfer_steps="1"
       flexible="false"
       use_knot_distance="true"
       apply_no_radius="true"
       apply_with_radius="true"
       only_selected="false"
       hide_knots="false" /><inkscape:path-effect
       effect="fillet_chamfer"
       id="path-effect13-8"
       is_visible="true"
       lpeversion="1"
       nodesatellites_param="F,0,0,1,0,10,0,1 @ F,0,0,1,0,10,0,1"
       radius="10"
       unit="px"
       method="auto"
       mode="F"
       chamfer_steps="1"
       flexible="false"
       use_knot_distance="true"
       apply_no_radius="true"
       apply_with_radius="true"
       only_selected="false"
       hide_knots="false" /><inkscape:path-effect
       effect="fillet_chamfer"
       id="path-effect11-9"
       is_visible="true"
       lpeversion="1"
       nodesatellites_param="F,0,0,1,0,10,0,1 @ F,0,0,1,0,10,0,1"
       radius="10"
       unit="px"
       method="auto"
       mode="F"
       chamfer_steps="1"
       flexible="false"
       use_knot_distance="true"
       apply_no_radius="true"
       apply_with_radius="true"
       only_selected="false"
       hide_knots="false" /><inkscape:path-effect
       effect="fillet_chamfer"
       id="path-effect12-2"
       is_visible="true"
       lpeversion="1"
       nodesatellites_param="F,0,0,1,0,10,0,1 @ F,0,0,1,0,10,0,1"
       radius="10"
       unit="px"
       method="auto"
       mode="F"
       chamfer_steps="1"
       flexible="false"
       use_knot_distance="true"
       apply_no_radius="true"
       apply_with_radius="true"
       only_selected="false"
       hide_knots="false" /><inkscape:path-effect
       effect="fillet_chamfer"
       id="path-effect13-9"
       is_visible="true"
       lpeversion="1"
       nodesatellites_param="F,0,0,1,0,10,0,1 @ F,0,0,1,0,10,0,1"
       radius="10"
       unit="px"
       method="auto"
       mode="F"
       chamfer_steps="1"
       flexible="false"
       use_knot_distance="true"
       apply_no_radius="true"
       apply_with_radius="true"
       only_selected="false"
       hide_knots="false" /><inkscape:path-effect
       effect="fillet_chamfer"
       id="path-effect11-9-4"
       is_visible="true"
       lpeversion="1"
       nodesatellites_param="F,0,0,1,0,10,0,1 @ F,0,0,1,0,10,0,1"
       radius="10"
       unit="px"
       method="auto"
       mode="F"
       chamfer_steps="1"
       flexible="false"
       use_knot_distance="true"
       apply_no_radius="true"
       apply_with_radius="true"
       only_selected="false"
       hide_knots="false" /></defs><sodipodi:namedview
     id="namedview1"
     pagecolor="#ffffff"
     bordercolor="#000000"
     borderopacity="0.25"
     inkscape:showpageshadow="2"
     inkscape:pageopacity="0.0"
     inkscape:pagecheckerboard="0"
     inkscape:deskcolor="#d1d1d1"
     showguides="false"
     inkscape:zoom="0.45883046"
     inkscape:cx="453.32649"
     inkscape:cy="463.13403"
     inkscape:window-width="1440"
     inkscape:window-height="900"
     inkscape:window-x="0"
     inkscape:window-y="0"
     inkscape:window-maximized="0"
     inkscape:current-layer="g1" /><g
     inkscape:groupmode="layer"
     inkscape:label="Image"
     id="g1"><g
       id="g16"
       transform="matrix(1.4525071,0.83860538,-0.83860538,1.4525071,-24.144579,-1055.615)"><path
         id="path9"
         transform="matrix(1.0531343,0,0,1.0531343,15.934721,-915.81664)"
         inkscape:transform-center-x="1.691731e-06"
         inkscape:transform-center-y="-12.465457"
         d="m 796.86458,1263.8723 15.11641,19.8124 a 7.8177189,7.8177189 20.055322 0 0 7.91351,2.8889 l 34.06006,-7.5799 a 2.7147436,2.7147436 48.953757 0 1 3.13332,3.5986 l -13.9129,37.3028 a 7.2013048,7.2013048 145.22703 0 1 -6.74728,4.6848 l -85.19207,0 a 7.2013048,7.2013048 34.772967 0 1 -6.74728,-4.6848 l -13.9129,-37.3028 a 2.7147438,2.7147438 131.04624 0 1 3.13332,-3.5986 l 34.06007,7.5799 a 7.8177193,7.8177193 159.94468 0 0 7.91351,-2.8889 l 15.11641,-19.8124 a 3.8148859,3.8148859 0 0 1 6.06582,0 z"
         style="fill:#002f4c;fill-opacity:1;stroke:none;stroke-width:50;stroke-linecap:round;stroke-linejoin:round;stroke-dasharray:none;stroke-opacity:1"
         sodipodi:nodetypes="cccccccc"
         inkscape:path-effect="#path-effect10"
         inkscape:original-d="m 793.83167,1259.8972 21.18223,27.7626 43.82126,-9.7523 -17.40746,46.6724 h -95.19207 l -17.40746,-46.6724 43.82127,9.7523 z" /><rect
         style="fill:#084c79;fill-opacity:1;stroke:none;stroke-width:7.90686;stroke-linecap:round;stroke-linejoin:round"
         id="rect1"
         width="263.45331"
         height="263.45331"
         x="720.21942"
         y="464.66483"
         ry="25" /><ellipse
         style="fill:#002f4c;fill-opacity:1;stroke:none;stroke-width:64.0912;stroke-linecap:round;stroke-linejoin:round;stroke-dasharray:none;stroke-opacity:1"
         id="path8"
         cx="936.89398"
         cy="-186.40591"
         rx="29.426556"
         ry="35.053944"
         transform="rotate(45)" /></g><g
       id="g17"
       transform="matrix(1.6200612,-0.43409409,0.43409409,1.6200612,-737.19025,-1926.9526)"><path
         id="path10-3-1"
         style="display:inline;fill:#33783b;fill-opacity:1;stroke:none;stroke-width:55.371;stroke-linecap:round;stroke-linejoin:round;stroke-dasharray:none;stroke-opacity:1"
         d="m 522.27404,1148.9448 c -16.35492,23.2349 -56.21666,95.1619 0.49851,182.9921 2.99571,4.6393 8.21329,4.6392 11.20903,0 56.71517,-87.8304 16.85329,-159.7574 0.49841,-182.9922 -3.1776,-4.5143 -9.02833,-4.5143 -12.20595,10e-5 z"
         inkscape:path-effect="#path-effect11-9-4"
         inkscape:original-d="m 528.37704,1141.0283 c 0,0 -78.79114,87.9104 0,199.1895 78.79115,-111.2791 0,-199.1895 0,-199.1895 z"
         transform="matrix(-0.71441781,-0.71441781,-0.47115719,0.47115719,1190.2254,1147.6977)" /><path
         id="path16"
         style="fill:#331b0b;fill-opacity:1;stroke-width:50;stroke-linecap:round;stroke-linejoin:round"
         d="m 190.44176,1405.9342 c -1.71586,1.9905 -12.19988,1.7575 -12.20871,0.9741 -0.34516,-30.6158 -17.89017,-63.0573 -27.54921,-71.224 -4.01363,-3.3935 -4.42636,-9.4409 -0.99461,-13.422 3.43173,-3.981 9.4305,-4.4141 13.42198,-0.9946 16.86292,14.4466 30.76229,80.6854 27.33055,84.6665 z"
         sodipodi:nodetypes="ssssss" /><path
         sodipodi:type="star"
         style="fill:#dc481c;fill-opacity:1;stroke:none;stroke-width:23.05;stroke-linecap:round;stroke-linejoin:round;stroke-dasharray:none;stroke-opacity:0"
         id="path2"
         inkscape:flatsided="true"
         sodipodi:sides="3"
         sodipodi:cx="295.29718"
         sodipodi:cy="322.83786"
         sodipodi:r1="233.55003"
         sodipodi:r2="116.77502"
         sodipodi:arg1="1.5707963"
         sodipodi:arg2="2.6179939"
         inkscape:rounded="0"
         inkscape:randomized="0"
         d="M 282.79719,534.73726 105.53692,227.71348 a 14.433757,14.433757 120 0 1 12.49999,-21.65063 l 354.52053,-1e-5 a 14.433757,14.433757 59.999998 0 1 12.5,21.65063 L 307.79719,534.73726 a 14.433757,14.433757 180 0 1 -25,0 z"
         inkscape:transform-center-y="-38.880401"
         transform="matrix(-0.85992711,0,0,-0.85992711,440.09093,1863.5698)"
         inkscape:transform-center-x="-4.1439323e-06"
         inkscape:path-effect="#path-effect8" /></g><g
       id="g15"
       transform="matrix(0,1.3378126,-1.3378126,0,2459.1941,-30.152281)"><g
         id="g14"
         transform="matrix(0.88096615,0,0,0.88096615,65.01553,150.32653)"><path
           style="display:inline;fill:#33783b;fill-opacity:1;stroke:none;stroke-width:50;stroke-linecap:round;stroke-linejoin:round;stroke-dasharray:none;stroke-opacity:1"
           d="m 420.8301,1192.7135 c 16.996,23.0437 65.15546,93.5985 84.94759,177.7918 1.26379,5.376 3.92297,5.6483 5.78537,0.4499 12.52506,-34.9602 46.18086,-157.7154 -86.94963,-184.4437 -5.41433,-1.087 -7.06135,1.7575 -3.78333,6.202 z"
           id="path11"
           sodipodi:nodetypes="ccc"
           inkscape:path-effect="#path-effect12"
           inkscape:original-d="m 414.76881,1184.7605 c 0,0 71.0295,87.9159 93.16162,195.5098 0,0 75.32311,-169.2287 -93.16162,-195.5098 z" /><path
           style="fill:#33783b;fill-opacity:1;stroke:none;stroke-width:50;stroke-linecap:round;stroke-linejoin:round;stroke-dasharray:none;stroke-opacity:1"
           d="m 389.76197,1256.4845 c 20.78431,11.92 74.25025,48.4527 117.88529,128.6289 2.63991,4.8506 4.61784,4.3584 4.24937,-1.1514 -2.3851,-35.6654 -18.07298,-153.5996 -121.22694,-134.2987 -5.42759,1.0156 -5.69705,4.0745 -0.90772,6.8212 z"
           id="path12"
           inkscape:path-effect="#path-effect13"
           inkscape:original-d="m 380.9109,1251.8376 c 0,0 75.40374,33.226 131.41318,142.114 0,0 -0.40523,-175.8215 -131.41318,-142.114 z"
           sodipodi:nodetypes="ccc" /><path
           id="path10-3"
           style="display:inline;fill:#33783b;fill-opacity:1;stroke:none;stroke-width:55.371;stroke-linecap:round;stroke-linejoin:round;stroke-dasharray:none;stroke-opacity:1"
           d="m 522.27404,1148.9448 c -16.35492,23.2349 -56.21666,95.1619 0.49851,182.9921 2.99571,4.6393 8.21329,4.6392 11.20903,0 56.71517,-87.8304 16.85329,-159.7574 0.49841,-182.9922 -3.1776,-4.5143 -9.02833,-4.5143 -12.20595,10e-5 z"
           inkscape:path-effect="#path-effect11-9"
           inkscape:original-d="m 528.37704,1141.0283 c 0,0 -78.79114,87.9104 0,199.1895 78.79115,-111.2791 0,-199.1895 0,-199.1895 z"
           transform="matrix(-0.94492266,0,0,1.0863573,1027.6525,-100.25675)" /><path
           style="display:inline;fill:#33783b;fill-opacity:1;stroke:none;stroke-width:50;stroke-linecap:round;stroke-linejoin:round;stroke-dasharray:none;stroke-opacity:1"
           d="m 420.8301,1192.7135 c 16.996,23.0437 65.15546,93.5985 84.94759,177.7918 1.26379,5.376 3.92297,5.6483 5.78537,0.4499 12.52506,-34.9602 46.18086,-157.7154 -86.94963,-184.4437 -5.41433,-1.087 -7.06135,1.7575 -3.78333,6.202 z"
           id="path11-00"
           sodipodi:nodetypes="ccc"
           inkscape:path-effect="#path-effect12-2"
           inkscape:original-d="m 414.76881,1184.7605 c 0,0 71.0295,87.9159 93.16162,195.5098 0,0 75.32311,-169.2287 -93.16162,-195.5098 z"
           transform="matrix(-1,0,0,1,1056.7541,0)" /><path
           style="fill:#33783b;fill-opacity:1;stroke:none;stroke-width:50;stroke-linecap:round;stroke-linejoin:round;stroke-dasharray:none;stroke-opacity:1"
           d="m 389.76197,1256.4845 c 20.78431,11.92 74.25025,48.4527 117.88529,128.6289 2.63991,4.8506 4.61784,4.3584 4.24937,-1.1514 -2.3851,-35.6654 -18.07298,-153.5996 -121.22694,-134.2987 -5.42759,1.0156 -5.69705,4.0745 -0.90772,6.8212 z"
           id="path12-3"
           inkscape:path-effect="#path-effect13-9"
           inkscape:original-d="m 380.9109,1251.8376 c 0,0 75.40374,33.226 131.41318,142.114 0,0 -0.40523,-175.8215 -131.41318,-142.114 z"
           sodipodi:nodetypes="ccc"
           transform="matrix(-1,0,0,1,1056.7541,0)" /></g><g
         id="g8"
         transform="translate(163.4793,96.614192)"><ellipse
           style="fill:#ebc887;fill-opacity:1;stroke:none;stroke-width:8.34438;stroke-linecap:round;stroke-linejoin:round"
           id="path1"
           cx="367.01852"
           cy="1410.7804"
           rx="152.46063"
           ry="197.95682" /><path
           d="m -269.70147,1355.7474 724.07734,724.0773 m -671.04433,-777.1103 724.07734,724.0772 m -671.04433,-777.1102 724.07734,724.0772 m -671.04433,-777.1102 724.07729,724.0772 M -57.569427,1143.6154 666.50795,1867.6927 M -4.5364272,1090.5824 719.54095,1814.6597 M 48.496583,1037.5494 772.57395,1761.6266 M 101.52959,984.51636 825.60695,1708.5936 M 154.5626,931.48335 878.63995,1655.5607 M 207.59561,878.45034 931.67295,1602.5277 M 260.62861,825.41733 984.70595,1549.4947 M 313.66162,772.38433 1037.7389,1496.4617 M 366.69463,719.35132 1090.7719,1443.4287 M -269.70147,1461.8134 454.37587,737.73609 M -216.66846,1514.8465 507.40888,790.7691 M -163.63545,1567.8795 560.44189,843.80211 M -110.60244,1620.9125 613.47485,896.83512 M -57.569427,1673.9455 666.50795,949.86813 M -4.5364272,1726.9784 719.54095,1002.9011 M 48.496583,1780.0114 772.57395,1055.9342 M 101.52959,1833.0444 825.60695,1108.9672 M 154.5626,1886.0774 878.63995,1162.0002 m -671.04434,777.1102 724.07734,-724.0772 m -671.04434,777.1102 724.07734,-724.0772 m -671.04433,777.1102 724.07728,-724.0772 m -671.04427,777.1102 724.07727,-724.0772"
           style="fill:none;stroke:#d1a347;stroke-width:10px;stroke-opacity:1"
           id="path5"
           sodipodi:nodetypes="cccccccccccccccccccccccccccccccccccccccccccccccccccc"
           clip-path="url(#clipPath7)" /></g></g></g></svg>
